<svg width="33" height="31" viewBox="0 0 33 31" fill="none" xmlns="http://www.w3.org/2000/svg">
<path d="M15.204 2.9365C15.6011 1.81617 15.7995 1.25603 16.0931 1.10078C16.3471 0.966407 16.6529 0.966407 16.907 1.10078C17.2005 1.25603 17.3989 1.81617 17.7959 2.9365L20.4204 10.343C20.5335 10.6618 20.5899 10.8212 20.6918 10.94C20.7816 11.0448 20.8964 11.1266 21.0259 11.1781C21.1723 11.2364 21.3443 11.2398 21.6884 11.2467L29.68 11.4064C30.889 11.4306 31.4933 11.4427 31.7346 11.6685C31.9434 11.864 32.0379 12.1494 31.9861 12.4279C31.9264 12.7498 31.4446 13.1079 30.4811 13.8246L24.1114 18.5617C23.8371 18.7658 23.7001 18.8677 23.6164 18.9993C23.5425 19.1157 23.4987 19.2479 23.4888 19.3845C23.4777 19.5393 23.5274 19.7008 23.627 20.024L25.9418 27.5292C26.2918 28.6645 26.4669 29.2321 26.3225 29.5269C26.1975 29.7821 25.95 29.9584 25.664 29.9963C25.3335 30.0398 24.8373 29.7012 23.8448 29.0237L17.2837 24.545C17.0012 24.3522 16.8601 24.2558 16.7066 24.2183C16.5709 24.1854 16.4291 24.1854 16.2936 24.2183C16.1401 24.2558 15.9988 24.3522 15.7163 24.545L9.15522 29.0237C8.16277 29.7012 7.66654 30.0398 7.33606 29.9963C7.05004 29.9584 6.80256 29.7821 6.67756 29.5269C6.53312 29.2321 6.70819 28.6645 7.05831 27.5292L9.37299 20.024C9.47264 19.7008 9.52246 19.5393 9.51124 19.3845C9.50133 19.2479 9.45753 19.1157 9.38363 18.9993C9.29998 18.8677 9.16287 18.7658 8.88865 18.5617L2.51898 13.8246C1.55548 13.1079 1.07373 12.7498 1.01393 12.4279C0.962149 12.1494 1.05668 11.864 1.26545 11.6685C1.50665 11.4427 2.11108 11.4306 3.31991 11.4064L11.3116 11.2467C11.6556 11.2398 11.8277 11.2364 11.9742 11.1781C12.1037 11.1266 12.2184 11.0448 12.3083 10.94C12.4101 10.8212 12.4666 10.6618 12.5796 10.343L15.204 2.9365Z" fill="#FFB900" stroke="#FFB900" stroke-width="2" stroke-linecap="round" stroke-linejoin="round"/>
</svg>
